<?xml version="1.0" encoding="UTF-8"?><svg id="Layer_2" xmlns="http://www.w3.org/2000/svg" viewBox="0 0 327.26 326.55"><defs><style>.cls-1{fill:#f4eeed;stroke:#000;stroke-miterlimit:10;stroke-width:3px;}</style></defs><g id="Layer_1-2"><path class="cls-1" d="M1.5,162.83h159.27L47.86,49.92C16.84,81.15,1.39,122.01,1.5,162.83Z"/><path class="cls-1" d="M164.62,1.5v159.27l112.91-112.91C246.3,16.84,205.44,1.39,164.62,1.5Z"/><path class="cls-1" d="M162.77,324.83v-159.27l-112.91,112.91c31.23,31.02,72.08,46.48,112.91,46.36Z"/><path class="cls-1" d="M325.39,164.12h-159.27l112.91,112.91c31.02-31.23,46.48-72.08,46.36-112.91Z"/><path class="cls-1" d="M48.76,276.81l112.62-112.62H1.71c.14,44.02,18.11,83.84,47.05,112.62Z"/><path class="cls-1" d="M278.7,49.48l-112.62,112.62h159.68c-.14-44.02-18.11-83.84-47.05-112.62Z"/><path class="cls-1" d="M49.56,48.58l112.62,112.62V1.53c-44.02.14-83.84,18.11-112.62,47.05Z"/><path class="cls-1" d="M277.15,277.99l-112.62-112.62v159.68c44.02-.14,83.84-18.11,112.62-47.05Z"/></g></svg>